<?xml version="1.0" encoding="utf-8"?>
<!-- Generator: Adobe Illustrator 17.0.0, SVG Export Plug-In . SVG Version: 6.00 Build 0)  -->
<!DOCTYPE svg PUBLIC "-//W3C//DTD SVG 1.1 Tiny//EN" "http://www.w3.org/Graphics/SVG/1.1/DTD/svg11-tiny.dtd">
<svg version="1.1" baseProfile="tiny" xmlns="http://www.w3.org/2000/svg" xmlns:xlink="http://www.w3.org/1999/xlink" x="0px"
	 y="0px" width="1920px" height="1280px" viewBox="0 0 1920 1280" xml:space="preserve">
<g id="room">
	<polyline fill="none" stroke="#000000" stroke-miterlimit="10" points="1023.557,776.193 1097.138,648.799 1023.681,521.5 
		876.642,521.5 803.12,648.982 876.637,776.464 	"/>
</g>
<g id="center">
</g>
<g id="paths">
	<g>
		<polyline fill="none" stroke="#000000" stroke-miterlimit="10" points="373.5,213 373.5,1090.5 919.5,1090.5 919.5,699 		"/>
		<g>
			<path d="M919.5,693c1.054,2.84,2.852,6.363,4.756,8.547l-4.756-1.72l-4.755,1.72C916.649,699.363,918.447,695.84,919.5,693z"/>
		</g>
	</g>
	<g>
		<polyline fill="none" stroke="#000000" stroke-miterlimit="10" points="1555.5,213 1555.5,1090.5 989.5,1090.5 989.5,699 		"/>
		<g>
			<path d="M989.5,693c1.054,2.84,2.852,6.363,4.756,8.547l-4.756-1.72l-4.755,1.72C986.649,699.363,988.447,695.84,989.5,693z"/>
		</g>
	</g>
</g>
</svg>
