<?xml version="1.0" encoding="utf-8"?>
<!-- Generator: Adobe Illustrator 17.0.0, SVG Export Plug-In . SVG Version: 6.00 Build 0)  -->
<!DOCTYPE svg PUBLIC "-//W3C//DTD SVG 1.1//EN" "http://www.w3.org/Graphics/SVG/1.1/DTD/svg11.dtd">
<svg version="1.1" id="Layer_1" xmlns="http://www.w3.org/2000/svg" xmlns:xlink="http://www.w3.org/1999/xlink" x="0px" y="0px"
	 width="1920px" height="1280px" viewBox="0 0 1920 1280" enable-background="new 0 0 1920 1280" xml:space="preserve">
<g id="room">
	<g>
		<g>
			<polyline fill="none" stroke="#000000" stroke-miterlimit="10" points="1035.367,755.746 1097.138,648.799 1023.681,521.5 
				876.642,521.5 803.12,648.982 873.622,771.236 			"/>
			<g>
				<path d="M876.637,776.464c-2.331-1.934-5.649-4.088-8.39-5.028l4.979-0.886l3.26-3.866
					C875.927,769.528,876.13,773.478,876.637,776.464z"/>
			</g>
		</g>
	</g>
</g>
<g id="pillars">
	<circle fill="none" stroke="#000000" stroke-miterlimit="10" cx="877.156" cy="924.034" r="13.211"/>
	<circle fill="none" stroke="#000000" stroke-miterlimit="10" cx="1022.156" cy="924.034" r="13.211"/>
</g>
<g id="center">
</g>
<g id="paths">
	<g>
		<polyline fill="none" stroke="#000000" stroke-miterlimit="10" points="373.5,213 373.5,1090.5 919.5,1090.5 919.5,699 		"/>
		<g>
			<path d="M919.5,693c1.054,2.84,2.852,6.363,4.756,8.547l-4.756-1.72l-4.755,1.72C916.649,699.363,918.447,695.84,919.5,693z"/>
		</g>
	</g>
	<g>
		<polyline fill="none" stroke="#000000" stroke-miterlimit="10" points="1555.5,213 1555.5,1090.5 989.5,1090.5 989.5,699 		"/>
		<g>
			<path d="M989.5,693c1.054,2.84,2.852,6.363,4.756,8.547l-4.756-1.72l-4.755,1.72C986.649,699.363,988.447,695.84,989.5,693z"/>
		</g>
	</g>
</g>
</svg>
